<svg version="1.2" xmlns="http://www.w3.org/2000/svg" viewBox="0 0 128 128" width="128" height="128">
	<title>go-svg</title>
	<style>
		.s0 { fill: #00acd7;stroke: #ffffff;paint-order:stroke fill markers;stroke-linejoin: round;stroke-width: 6 } 
	</style>
	<g id="Layer">
		<path id="Layer" fill-rule="evenodd" class="s0" d="m11.2 54.8q-0.4 0-0.2-0.3l1.2-1.6c0.2-0.2 0.5-0.3 0.7-0.3h21.6c0.3 0 0.4 0.2 0.2 0.4l-1 1.5c-0.1 0.2-0.4 0.4-0.6 0.4zm-9.2 5.6q-0.3-0.1-0.1-0.3l1.2-1.7c0.2-0.2 0.5-0.3 0.7-0.3h27.6c0.3 0 0.4 0.2 0.3 0.4l-0.4 1.4c-0.1 0.3-0.3 0.4-0.6 0.4zm14.7 5.6c-0.3 0-0.3-0.2-0.2-0.4l0.8-1.5c0.2-0.2 0.4-0.4 0.7-0.4h12.1c0.2 0 0.3 0.2 0.3 0.5l-0.1 1.4c0 0.3-0.2 0.4-0.4 0.4zm62.9-12.2c-3.8 1-6.4 1.7-10.2 2.7-0.9 0.2-1 0.3-1.7-0.6-0.9-1.1-1.6-1.7-2.9-2.3-3.8-1.9-7.5-1.4-11 0.9-4.1 2.6-6.2 6.6-6.1 11.5 0 4.8 3.4 8.8 8.1 9.5 4.2 0.5 7.6-0.9 10.3-4 0.6-0.7 1.1-1.4 1.7-2.2h-11.7c-1.3 0-1.6-0.8-1.2-1.9 0.8-1.8 2.3-5 3.1-6.6 0.2-0.3 0.6-0.9 1.5-0.9h19.5c0.9-2.8 2.3-5.4 4.2-7.9 4.5-5.8 9.8-8.9 17-10.1 6.2-1.1 12-0.5 17.3 3 4.8 3.3 7.7 7.7 8.5 13.6 1.1 8.1-1.3 14.8-6.9 20.5-4 4.1-9 6.6-14.6 7.8-1.6 0.3-3.3 0.3-4.8 0.5-5.6-0.1-10.6-1.7-14.8-5.3-3-2.6-5.1-5.8-6.1-9.5q-1.1 2.2-2.5 4.1c-4.4 5.8-10.1 9.4-17.3 10.4-5.9 0.7-11.5-0.4-16.3-4q-6.7-5.1-7.7-13.5c-0.8-6.6 1.1-12.6 5.1-17.8 4.3-5.6 10-9.2 17-10.4 5.7-1.1 11.2-0.4 16.1 2.9 3.2 2.1 5.5 5.1 7 8.6 0.4 0.5 0.1 0.8-0.6 1zm34.5 9c-0.1-0.8-0.1-1.4-0.2-2-1.1-6-6.6-9.4-12.4-8-5.6 1.2-9.2 4.8-10.6 10.5-1.1 4.7 1.2 9.5 5.6 11.5 3.3 1.4 6.7 1.2 9.9-0.4 4.8-2.5 7.4-6.4 7.7-11.6z"/>
	</g>
</svg>